<svg width="289" height="251" viewBox="0 0 289 251" fill="none" xmlns="http://www.w3.org/2000/svg">
<ellipse cx="144.5" cy="215.216" rx="144.5" ry="34" fill="#12BABA"/>
<ellipse cx="128" cy="208.216" rx="110" ry="26" fill="#10ABAB"/>
<path d="M66.2198 148.927L84.2812 150.878C84.4582 163.458 80.667 169.015 68.657 176.908C67.8223 184.605 70.0736 188.217 75.2094 192.666C76.357 193.66 76.0992 195.548 74.6315 195.936C73.0679 196.35 71.5566 196.494 69.8208 196.29C65.503 195.781 63.1923 191.282 63.1994 186.934C63.209 181.151 62.4253 176.315 60.6664 169.2L66.2198 148.927Z" fill="#BB9B88"/>
<path d="M174.306 151.169L182.481 145.432C193.049 155.021 200.961 159.779 238.051 182.755C235.971 187.584 232.465 187.842 223.664 185.635C215.789 178.898 209.821 175.422 198.125 169.425C177.672 157.142 179.182 156.253 174.306 151.169Z" fill="#D2B09D"/>
<path d="M147.907 90.8483L181.999 88.9749L178.086 128.081C181.802 129.828 183.313 133.638 184.638 140.592C185.345 144.301 183.668 147.983 180.828 150.472C173.337 157.037 171.728 162.658 171.074 172.065C183.674 189.981 202.398 203.906 218.164 217.842L212.398 223.224C192.968 210.742 170.82 195.428 154 180.558C152.405 179.148 151.393 177.232 150.804 175.186C150.292 173.408 149.657 171.847 148.638 169.682C131.843 171.282 123.72 169.788 111.45 162.891C98.7154 155.836 91.1454 152.64 75.4311 150.848C71.2182 159.869 67.886 164.887 60.1262 171.265C58.5034 172.599 56.465 173.327 54.3644 173.343C48.755 173.385 44.917 172.881 39.1947 170.54C35.9568 175.926 34.3012 179.76 32.8123 184.614C31.7144 188.193 28.7058 192.072 25.15 190.901C23.1503 190.242 22.7323 188.018 23.8968 183.093C23.9564 182.84 24.0434 182.58 24.1437 182.34C32.853 161.57 34.4654 159.347 40.5034 160.667C43.15 143.819 45.4279 137.163 52.0216 134.182C60.881 124.199 58.2878 114.839 48.3191 93.3761C47.0288 90.5979 48.7449 86.9832 51.4768 88.369C52.3111 88.7922 53.248 89.4117 54.3599 90.2806C54.6064 90.4732 54.8297 90.6898 55.0307 90.9295C60.2707 97.1795 66.9209 108.05 69.9631 116.083C96.0184 120.108 110.796 120.257 137.879 111.523C144.852 109.056 146.473 102.281 147.907 90.8483Z" fill="url(#paint0_linear)"/>
<path d="M142.188 86.8705C138.445 84.648 135.496 81.2726 133.937 77.2079C129.012 64.3658 127.979 57.763 132.987 53.3831C139.46 51.572 147.874 63.9866 158.596 70.3992L147.568 90.0646L142.188 86.8705Z" fill="#BA6B3F"/>
<path d="M142.77 84.8271C139.591 82.6123 137.091 79.5275 135.716 75.9043C131.596 65.0448 130.751 59.4415 134.969 55.721C140.454 54.1763 147.595 64.7991 156.689 70.2904L148.258 88.6491L142.77 84.8271Z" fill="#673B23"/>
<path d="M193.053 80.2382C194.74 75.4959 194.568 70.2905 192.666 65.63C186.935 51.5871 183.281 41.671 177.144 40.5909C172.209 44.1221 173.631 57.7364 169.556 68.6312L192.193 82.6532L193.053 80.2382Z" fill="#BA6B3F"/>
<path d="M190.063 78.4779C191.75 73.7356 191.583 68.5292 189.687 63.8662C185.36 53.2211 182.441 45.7953 177.672 44.9559C173.673 47.8169 174.825 58.8471 171.524 67.6739L189.865 79.0345L190.063 78.4779Z" fill="#673B23"/>
<path d="M149.671 82.0384C151.839 74.9946 157.705 69.714 164.937 68.2959L175.58 66.209C187.758 65.9615 191.678 76.7345 193.61 89.5782C168.586 115.771 158.317 117.408 147.276 89.819L149.671 82.0384Z" fill="#BA6B3F"/>
<path d="M160.655 69.1356L170.515 67.1923C172.201 72.9029 174.565 76.2792 179.993 82.6318C177.454 81.4975 176.34 82.4602 175.782 84.0829C170.802 77.9302 167.919 74.4012 160.655 69.1356Z" fill="#EEC7B2"/>
<path d="M211.012 220.893L216.603 216.611L231.074 224.025C232.667 231.311 231.219 233.851 222.762 232.693C220.517 232.386 218.507 231.155 217.058 229.414C212.648 224.118 210.918 221.778 211.012 220.893Z" fill="#EEC7B2"/>
<path d="M166.673 110.637C163.692 106.845 166.225 102.546 170.911 101.405L175.637 100.254C183.077 98.4424 189.699 105.537 190.783 113.117C191.182 115.91 191.892 119.096 192.98 122.941C193.478 124.697 193.808 126.786 192.515 128.074C192.176 128.412 191.78 128.67 191.32 128.874C189.081 129.869 186.489 128.926 184.527 127.457C177.798 122.415 170.842 115.939 166.673 110.637Z" fill="#BA6B3F"/>
<path d="M163.875 102.98L191.482 96.2695C189.446 104.405 187.879 109.859 191.895 122.17C192.306 123.428 192.527 124.962 191.719 126.01C189.72 128.601 185.585 126.559 182.994 124.561C173.595 117.316 164.127 107.451 163.875 102.98Z" fill="#494646"/>
<path d="M173.012 104.384L188.267 103.056C189.15 111.279 187.832 116.098 182.076 122.025C179.67 124.503 176.449 126.048 173.032 126.541C169.621 127.032 167.292 127.046 165.969 126.382C162.453 124.62 167.163 119.872 169.995 117.144C173.88 113.404 174.835 110.032 173.012 104.384Z" fill="#E45B5B"/>
<path d="M179.399 103.828L181.645 104.717C183.23 108.519 180.385 113.341 176.706 117.77C173.194 121.997 170.823 122.858 174.528 118.799C174.672 118.641 174.819 118.478 174.968 118.31C179.658 113.022 181.237 109.361 179.399 103.828Z" fill="#BC2B2B"/>
<path d="M162.824 103.374C167.112 96.3058 170.901 92.1427 175.633 88.7306C179.739 85.7696 185.169 85.0354 189.815 87.0458C197.271 90.2721 198.633 94.4157 198.137 100.975C198.003 102.757 196.833 104.314 195.138 104.88C191.911 105.957 188.377 106.454 180.961 106.262C178.804 106.206 176.69 105.698 174.611 105.121C170.166 103.887 166.498 103.872 162.824 103.374Z" fill="#EEC7B2"/>
<path d="M198.111 94.2912C198.806 96.8844 196.775 101.918 192.885 102.961C188.995 104.003 184.72 100.659 184.025 98.0658C183.33 95.4726 186.409 94.3514 190.299 93.309C194.189 92.2667 197.416 91.6979 198.111 94.2912Z" fill="#2D2C2C"/>
<path d="M196.746 94.285C196.898 94.8526 196.454 95.9543 195.602 96.1825C194.751 96.4106 193.815 95.6787 193.663 95.1111C193.511 94.5436 194.185 94.2982 195.036 94.07C195.888 93.8419 196.594 93.7174 196.746 94.285Z" fill="#9C9C9C"/>
<circle cx="164.728" cy="84.7747" r="4.05091" transform="rotate(-4.97823 164.728 84.7747)" fill="#201F1F"/>
<ellipse cx="186.192" cy="79.1099" rx="3.78085" ry="3.51079" transform="rotate(-4.97823 186.192 79.1099)" fill="#201F1F"/>
<circle cx="163.652" cy="84.8685" r="1.3503" transform="rotate(-4.97823 163.652 84.8685)" fill="white"/>
<circle cx="184.847" cy="79.2271" r="1.3503" transform="rotate(-4.97823 184.847 79.2271)" fill="white"/>
<circle cx="167.126" cy="84.2948" r="0.540121" transform="rotate(-4.97823 167.126 84.2948)" fill="white"/>
<circle cx="188.321" cy="78.6534" r="0.540121" transform="rotate(-4.97823 188.321 78.6534)" fill="white"/>
<path d="M202.055 41.8807C184.507 21.7655 203.695 10.2374 207.464 21.8143C216.543 13.7013 227.336 33.3118 202.055 41.8807Z" fill="#F73737"/>
<path d="M157.269 36.1056C122.424 23.8888 137.635 -3.08129 150.075 8.27173C155.457 -7.68758 181.832 8.53449 157.269 36.1056Z" fill="#F73737"/>
<path d="M115.504 52.4099C92.7944 54.4087 94.4845 35.366 104.372 38.585C103.337 28.2379 122.302 30.6484 115.504 52.4099Z" fill="#F73737"/>
<defs>
<linearGradient id="paint0_linear" x1="159.265" y1="40.7397" x2="113.083" y2="117.413" gradientUnits="userSpaceOnUse">
<stop stop-color="#BA6B3F"/>
<stop offset="1" stop-color="#EEC7B2"/>
</linearGradient>
</defs>
</svg>
