<svg width="251" height="289" viewBox="0 0 251 289" fill="none" xmlns="http://www.w3.org/2000/svg">
<path d="M170.399 60.503C137.874 23.2185 173.438 1.85046 180.426 23.3089C197.254 8.27098 217.259 44.6202 170.399 60.503Z" fill="#FC7CEF"/>
<path d="M175.562 103.283C160.346 77.1001 184.2 68.3889 185.907 82.0957C197.767 75.0129 205.567 99.1798 175.562 103.283Z" fill="#FC7CEF"/>
<path d="M44.3776 48.9067C-5.61699 51.8111 -0.661502 10.1097 20.8382 17.8239C19.241 -4.96279 60.7246 1.56952 44.3776 48.9067Z" fill="#FC7CEF"/>
<path d="M25.5713 99.08C-1.06719 101.425 0.915255 79.0877 12.5133 82.8636C11.2988 70.7265 33.5445 73.554 25.5713 99.08Z" fill="#FC7CEF"/>
<ellipse cx="82.9883" cy="261.258" rx="14.9268" ry="65.2774" transform="rotate(79.1828 82.9883 261.258)" fill="#12BABA"/>
<ellipse cx="176.978" cy="220.839" rx="9.80481" ry="73.3277" transform="rotate(79.1828 176.978 220.839)" fill="#10ABAB"/>
<ellipse cx="52.7618" cy="234.442" rx="9.80481" ry="44.9837" transform="rotate(79.1828 52.7618 234.442)" fill="#109696"/>
<path d="M66.4934 149.98C66.4108 122.716 60.1981 100.188 58.8523 91.0829C58.5194 88.8305 59.4733 86.3593 61.7127 85.9476C66.8325 85.0066 72.8117 92.7322 81.11 113.26L78.6145 131.798L66.4934 149.98Z" fill="url(#paint0_linear)"/>
<path d="M130.943 64.2767C131.879 63.7314 132.534 64.9978 132.724 66.0635C133.259 69.0525 133.762 72.2703 130.308 75.1142L125.681 72.5976L123.534 69.4101C127.929 66.9604 129.783 64.9535 130.943 64.2767Z" fill="#6B4040"/>
<path d="M130.413 65.351C131.313 64.7505 131.994 65.9337 132.183 66.9998C132.629 69.5251 132.958 72.2235 130.051 74.6163L126.045 72.4372L124.186 69.6773C127.762 67.6842 129.395 66.0297 130.413 65.351Z" fill="#401B1B"/>
<path d="M101.025 58.3969C102.07 57.1579 103.899 56.6617 105.193 57.6381C106.868 58.9013 107.768 61.1192 108.918 64.7756L104.996 67.2711L98.9354 70.8361C98.1528 64.5718 98.5602 61.3194 101.025 58.3969Z" fill="#6B4040"/>
<path d="M101.315 59.4952C102.329 58.2237 104.2 57.7198 105.438 58.7742C106.803 59.9363 107.581 61.8951 108.561 65.0251L105.046 67.2711L99.6143 70.4796C98.9316 64.9919 99.2594 62.0724 101.315 59.4952Z" fill="#401B1B"/>
<path d="M131.622 83.9643C129.913 92.6621 121.971 100.934 112.126 99C102.281 97.0656 94.2603 85.6569 95.9692 76.9592C97.6782 68.2614 107.045 62.7787 116.89 64.7131C126.735 66.6475 133.331 75.2666 131.622 83.9643Z" fill="#653737"/>
<path d="M115.995 79.5696C115.603 83.1437 116.548 84.3701 120.034 85.7437C119.1 88.0683 117.675 89.2651 115.053 90.572C114.34 90.9269 113.481 90.7958 112.908 90.243C110.2 87.6277 109.655 86.1024 108.847 83.9513C113.148 83.6031 115.229 82.626 115.995 79.5696Z" fill="#4C1F1F"/>
<path d="M116.022 78.8781C115.631 82.4522 116.576 83.6786 120.062 85.0522C119.128 87.3768 117.703 88.5736 115.08 89.8805C114.368 90.2354 113.508 90.1043 112.936 89.5515C110.228 86.9361 109.683 85.4108 108.875 83.2598C113.176 82.9116 115.257 81.9345 116.022 78.8781Z" fill="url(#paint1_linear)"/>
<path d="M112.338 87.2456C112.36 87.1354 112.519 87.1398 112.535 87.2511L112.809 89.1687L112.096 88.4557L112.338 87.2456Z" fill="#C4C4C4"/>
<path d="M116.208 87.5653C116.24 87.4539 116.404 87.4769 116.404 87.5928L116.404 89.0179L115.691 89.3744L116.208 87.5653Z" fill="#C4C4C4"/>
<path d="M118.09 78.3702C119.239 78.2616 120.09 78.3425 120.798 78.581C123.798 79.591 125.476 83.0805 125.695 86.2384C125.847 88.4484 124.469 88.5805 120.943 87.6393C116.575 85.5648 115.335 83.6703 115.691 79.3923L118.09 78.3702Z" fill="#C1A1A1"/>
<path d="M103.295 81.0266C109.162 76.8009 111.909 75.7585 115.059 78.1745L115.772 81.0266C114.297 84.239 112.409 85.4483 106.277 84.8619C104.781 84.719 103.051 84.4045 102.297 83.1047C101.932 82.4742 102.202 81.8632 103.295 81.0266Z" fill="#C1A1A1"/>
<path d="M115.691 81.1747L114.529 78.2697C114.413 77.9802 114.659 77.6753 114.966 77.7266L117.776 78.195C118.097 78.2484 118.224 78.6423 117.994 78.8724L115.691 81.1747Z" fill="#303030"/>
<path d="M109.337 80.2222C102.935 79.263 99.7751 79.2201 95.0767 80.2222" stroke="white" stroke-width="0.5"/>
<path d="M109.345 81.5193C102.891 81.0179 99.7361 81.1998 95.1209 82.5336" stroke="white" stroke-width="0.5"/>
<path d="M109.309 82.7895C102.836 82.8894 99.7122 83.3633 95.2407 85.1198" stroke="white" stroke-width="0.5"/>
<path d="M134.292 86.9958C129.537 83.5767 126.923 83.7188 121.458 82.7177" stroke="white" stroke-width="0.5"/>
<path d="M134.649 89.1349C129.553 85.8693 126.188 84.9668 121.102 83.7873" stroke="white" stroke-width="0.5"/>
<path d="M132.866 91.6304C127.937 88.2872 126.102 86.0054 120.745 84.9099" stroke="white" stroke-width="0.5"/>
<path d="M78.2582 40.1767C84.0886 33.2359 86.9822 34.6554 91.8053 41.9592C94.3806 75.0396 98.5746 84.0158 103.072 91.396C104.558 93.8342 106.501 96.0623 109.098 97.2477C112.11 98.6218 114.687 98.7347 117.902 97.7966C120.266 97.1067 122.329 95.6476 123.992 93.831C129.177 88.1644 131.884 82.789 134.942 71.9056C133.264 61.6703 136.026 59.572 142.072 56.9324C150.051 55.2965 150.603 59.2626 151.698 66.2015C153.077 69.3096 152.818 71.036 147.777 74.0446L142.072 89.0178C140.095 110.625 134.065 115.996 126.03 129.303C123.079 142.554 118.953 149.844 111.057 162.814C116.482 169.362 119.81 174.45 126.03 184.917C134.617 203.806 139.548 202.822 154.907 200.96C159.541 207.021 143.448 217.556 124.604 211.655C100.05 202.819 90.4112 198.268 85.3883 191.335C77.9432 192.386 68.2761 200.96 48.6683 225.203C43.5774 210.107 43.6336 200.571 51.5203 184.917C54.555 173.408 56.4077 166.818 66.85 148.554L71.1281 136.076C82.3294 115.167 84.1214 104.641 82.1797 87.2353C83.0346 72.8481 83.2268 64.3018 78.2582 40.1767Z" fill="#4D1F1F"/>
<ellipse cx="109.662" cy="73.1138" rx="3.44118" ry="2.62674" transform="rotate(13.285 109.662 73.1138)" fill="black"/>
<ellipse cx="109.698" cy="73.2538" rx="2.85204" ry="2.17704" transform="rotate(13.285 109.698 73.2538)" fill="#17A66A"/>
<ellipse cx="122.964" cy="75.6991" rx="3.40135" ry="2.59634" transform="rotate(3.92944 122.964 75.6991)" fill="black"/>
<ellipse cx="122.964" cy="75.6991" rx="2.85204" ry="2.17704" transform="rotate(3.92944 122.964 75.6991)" fill="#17A66A"/>
<ellipse cx="109.707" cy="72.9981" rx="0.356504" ry="1.06951" transform="rotate(4.13148 109.707 72.9981)" fill="#1E1E1E"/>
<circle cx="110.344" cy="72.9752" r="0.356504" fill="white"/>
<circle cx="107.848" cy="72.6187" r="0.713009" fill="#F5F5F5"/>
<ellipse cx="122.541" cy="75.1371" rx="0.356504" ry="1.06951" transform="rotate(4.13148 122.541 75.1371)" fill="#1E1E1E"/>
<circle cx="121.752" cy="75.1142" r="0.356504" fill="white"/>
<circle cx="124.247" cy="75.4707" r="0.713009" fill="#F5F5F5"/>
<circle cx="138.927" cy="63.823" r="1.78252" fill="#ED9090"/>
<circle cx="143.205" cy="61.684" r="1.78252" fill="#ED9090"/>
<circle cx="147.483" cy="63.823" r="1.78252" fill="#ED9090"/>
<circle cx="148.909" cy="68.1011" r="1.78252" fill="#ED9090"/>
<ellipse cx="142.56" cy="68.7472" rx="3.67111" ry="2.94104" transform="rotate(37.4759 142.56 68.7472)" fill="#ED9090"/>
<circle cx="82.0424" cy="40.4501" r="1.42602" transform="rotate(-29.0284 82.0424 40.4501)" fill="#ED9090"/>
<circle cx="85.6075" cy="39.0241" r="1.42602" transform="rotate(-29.0284 85.6075 39.0241)" fill="#ED9090"/>
<circle cx="88.4595" cy="40.4501" r="1.42602" transform="rotate(-29.0284 88.4595 40.4501)" fill="#ED9090"/>
<circle cx="81.3294" cy="44.0152" r="1.42602" transform="rotate(-29.0284 81.3294 44.0152)" fill="#ED9090"/>
<ellipse cx="86.4765" cy="45.0437" rx="3.62814" ry="2.50316" transform="rotate(50.7518 86.4765 45.0437)" fill="#ED9090"/>
<path d="M46.2356 209.633L56.2177 212.129C55.2181 219.786 55.2743 223.723 56.5743 231.38C53.33 236.571 49.7906 237.333 45.6872 232.324C44.8493 231.301 44.5978 229.935 44.8017 228.628C46.0681 220.518 45.104 217.085 46.2356 209.633Z" fill="#4D1F1F"/>
<defs>
<linearGradient id="paint0_linear" x1="77.9645" y1="131.559" x2="64.4174" y2="91.6304" gradientUnits="userSpaceOnUse">
<stop stop-color="#200E0E"/>
<stop offset="1" stop-color="#653737"/>
</linearGradient>
<linearGradient id="paint1_linear" x1="116.823" y1="80.2222" x2="115.041" y2="90.5608" gradientUnits="userSpaceOnUse">
<stop stop-color="#010101"/>
<stop offset="1" stop-color="#752828"/>
</linearGradient>
</defs>
</svg>
