<svg width="38" height="38" viewBox="0 0 38 38" fill="none" xmlns="http://www.w3.org/2000/svg">
<path d="M18.9998 7.34662C22.5676 7.34662 24.9743 8.88772 26.3465 10.1755L31.7087 4.93997C28.4153 1.87888 24.1298 0 18.9998 0C11.5688 0 5.15104 4.26441 2.02661 10.471L8.16991 15.2421C9.71101 10.661 13.9754 7.34662 18.9998 7.34662Z" fill="#EA4335"/>
<path d="M37.2394 19.4221C37.2394 17.8599 37.1127 16.7199 36.8383 15.5377H18.9995V22.5888H29.4706C29.2594 24.341 28.1195 26.9799 25.5861 28.7532L31.5817 33.3976C35.1705 30.0832 37.2394 25.2065 37.2394 19.4221Z" fill="#4285F4"/>
<path d="M8.19106 22.7579C7.78995 21.5757 7.55773 20.309 7.55773 19.0001C7.55773 17.6913 7.78995 16.4246 8.16995 15.2424L2.02665 10.4713C0.738884 13.0469 0 15.9391 0 19.0001C0 22.0612 0.738884 24.9534 2.02665 27.529L8.19106 22.7579Z" fill="#FBBC05"/>
<path d="M19 38.0001C24.1299 38.0001 28.4366 36.3112 31.5821 33.3979L25.5866 28.7534C23.9822 29.8723 21.8288 30.6534 19 30.6534C13.9756 30.6534 9.71114 27.339 8.19115 22.7579L2.04785 27.529C5.17228 33.7356 11.5689 38.0001 19 38.0001Z" fill="#34A853"/>
</svg>
