<svg width="45" height="45" viewBox="0 0 45 45" fill="none" xmlns="http://www.w3.org/2000/svg">
<path d="M14.5494 33.6091C11.5809 31.3411 11.2298 29.547 11.3894 28.3961C11.549 27.2451 14.1983 27.3467 14.326 27.3467C14.4536 27.3467 14.6132 25.6541 14.1983 25.3156C13.145 24.3001 11.7086 23.86 10.2723 23.1153C8.86783 22.3706 9.02742 22.4721 7.65491 21.2535L7.68683 21.2196C9.12318 18.8501 10.4319 16.9205 11.4533 15.465C13.0811 13.1292 14.7728 10.7258 17.3264 7.8823C18.252 6.86677 19.05 6.02049 19.6245 5.47887C18.8585 6.05434 17.9967 6.79907 17.1029 7.7469C16.4326 8.45777 15.89 9.13479 15.4112 9.77796C15.3793 7.95 15.5708 3.54936 18.252 1.17978C18.4116 1.04438 18.667 0.739717 19.1138 0.53661C21.6673 -0.614327 23.5506 0.299652 26.6786 1.28133C28.9129 0.942823 31.6261 1.41674 34.1157 2.12761C35.2329 2.43227 36.2543 3.07544 36.8927 4.09098C37.9779 5.88509 38.5844 8.0177 38.8717 9.20249C38.9355 9.50715 39.9888 11.3013 41.2017 12.6892C41.489 13.0277 41.7444 13.4339 41.872 13.8739C42.6381 16.4128 42.1912 17.4283 40.8187 18.3423C40.4038 18.647 39.8611 18.7485 39.3504 18.7147C35.7436 18.5454 34.4668 18.8501 33.4774 19.8317C33.1901 19.2901 33.0305 18.8162 32.839 18.4777C32.7751 18.3084 32.6794 18.2069 32.5517 18.173C32.1048 17.9699 31.243 18.647 30.9877 19.4594C30.7642 20.2041 31.0834 20.8811 31.2111 21.0842C30.7642 20.8134 30.2535 20.5765 29.7109 20.3057C29.1364 20.0348 28.5618 19.8317 28.0511 19.6286C28.6257 19.4255 29.3279 19.1209 30.0301 18.6131C31.5303 17.5637 32.424 16.2774 32.8709 15.465C30.8281 18.41 28.2107 19.6963 26.8063 18.9178C25.6891 18.3084 25.4657 16.2774 25.3061 14.4833C25.2742 13.9417 25.1146 11.7752 26.1041 9.57486C26.4552 8.83013 26.6786 8.59317 26.8382 8.45777C28.1788 7.37453 30.4451 8.49162 30.7323 8.66088C30.6046 8.55932 28.7533 7.10373 27.0936 7.8823C25.9445 8.42392 25.5295 9.64256 25.1465 10.8273C24.4762 12.8246 24.7635 14.6525 25.0188 16.2435C25.1465 16.9883 25.3061 17.5299 25.4338 17.8684C25.6253 18.41 25.8487 18.8501 26.0402 19.1547C25.7849 19.1209 25.4338 19.0532 25.0507 19.0532C24.1251 18.9855 23.4229 19.0532 23.1675 19.087C22.976 19.1209 22.2419 19.2224 21.3481 19.4932C20.7417 19.6963 20.231 19.8994 19.848 20.1026C21.3481 19.5271 22.6568 19.3917 23.5186 19.3578C26.0083 19.2901 27.8277 20.1026 29.0725 20.678C29.3598 20.8134 29.679 20.9827 30.0301 21.2196C31.0196 21.9644 31.4984 22.946 31.7218 23.5892C31.4345 23.9616 30.9877 24.4016 30.3493 24.5032C29.5832 24.6386 29.1364 24.1647 27.6043 23.2507C25.9764 22.3029 25.1465 21.829 24.2528 21.9305C23.7421 21.9982 23.2952 22.269 22.3696 22.8445C21.5397 23.3861 20.5821 23.9954 19.6564 25.1125C18.7308 26.2296 18.3478 27.2451 18.2839 27.4482C18.0924 27.956 17.869 28.5653 17.9328 29.3439C17.9647 30.0548 18.1882 30.6302 18.3478 30.9349C18.5074 31.2057 18.7627 31.5781 19.1138 31.9504C19.9118 32.7967 21.1566 33.5076 25.3061 33.7107C28.5938 33.8461 30.2216 33.9477 32.2325 33.2706C34.1477 32.6275 35.4563 31.7135 36.4777 30.9688C34.1796 45.3893 17.3902 50.0946 8.96358 38.416C9.69772 38.6868 10.5276 38.9576 11.5171 39.2623C11.7725 39.33 12.0278 39.2623 12.2193 39.093C14.1025 37.1635 15.6666 34.7262 14.5494 33.6091Z" fill="white"/>
<path d="M2.19666 28.4976C2.42009 30.6302 3.21807 34.557 6.18653 36.9265C7.6548 38.1113 9.21883 38.5175 9.21883 38.5175C9.21883 38.5175 5.64391 37.7051 3.02655 34.7262C0.664549 32.052 0.0580882 28.9038 0.0261692 27.9898C-0.0695877 26.1957 0.0261689 22.8106 1.55828 19.0193C3.2819 14.7879 5.93118 12.2829 7.3037 11.1658C6.05886 12.5199 4.30331 14.7879 3.15423 18.0715C2.96272 18.6131 2.03706 21.3212 1.97323 25.0109C1.94131 26.4327 2.06898 27.6175 2.19666 28.4976Z" fill="white"/>
<path d="M36.3181 31.0703C37.6587 29.9871 38.6163 28.9716 39.1908 28.2268C39.7015 27.6175 40.3718 27.0759 41.2975 25.6203C41.5528 25.2141 42.2231 24.334 43.3722 23.7923C44.0106 23.5215 44.5851 23.42 45.0001 23.42C44.5213 23.6569 43.8191 24.097 43.1807 24.8756C42.6381 25.5188 42.3827 26.1281 42.287 26.2973C41.8401 27.2452 40.4357 28.8362 36.2543 31.7135C36.2543 31.5104 36.2862 31.3073 36.3181 31.0703Z" fill="white"/>
</svg>
