<svg width="93" height="87" viewBox="0 0 93 87" fill="none" xmlns="http://www.w3.org/2000/svg">
<path d="M29.809 64.9292C23.7271 60.5476 23.0078 57.0816 23.3348 54.8581C23.6617 52.6346 29.0897 52.8308 29.3512 52.8308C29.6128 52.8308 29.9398 49.561 29.0897 48.907C26.9316 46.9451 23.9887 46.095 21.0459 44.6562C18.1684 43.2175 18.4954 43.4137 15.6833 41.0594L15.7487 40.994C18.6916 36.4163 21.3729 32.6886 23.4656 29.8766C26.8008 25.3642 30.2668 20.7211 35.4985 15.2277C37.395 13.2658 39.03 11.6309 40.2071 10.5846C38.6376 11.6963 36.8719 13.1351 35.0408 14.9662C33.6674 16.3395 32.5557 17.6474 31.5747 18.89C31.5093 15.3585 31.9017 6.85697 37.395 2.27921C37.722 2.01762 38.2452 1.42905 39.1607 1.03667C44.3925 -1.18681 48.2509 0.578895 54.6597 2.4754C59.2375 1.82143 64.7962 2.73699 69.8972 4.11032C72.1861 4.69889 74.2787 5.94142 75.5867 7.90332C77.8102 11.3693 79.0527 15.4893 79.6413 17.7782C79.7721 18.3668 81.9301 21.8328 84.4152 24.5141C85.0038 25.168 85.527 25.9528 85.7886 26.8029C87.3581 31.7077 86.4425 33.6696 83.6305 35.4353C82.7803 36.0239 81.6686 36.2201 80.6222 36.1547C73.2324 35.8277 70.6165 36.4163 68.5892 38.3128C68.0007 37.2664 67.6737 36.3509 67.2813 35.6969C67.1505 35.3699 66.9543 35.1737 66.6927 35.1083C65.7772 34.7159 64.0115 36.0239 63.4883 37.5934C63.0305 39.0321 63.6845 40.3401 63.9461 40.7324C63.0305 40.2093 61.9842 39.7515 60.8724 39.2283C59.6953 38.7051 58.5182 38.3128 57.4718 37.9204C58.6489 37.528 60.0877 36.9394 61.5264 35.9585C64.6 33.9312 66.4311 31.4461 67.3467 29.8766C63.1613 35.5661 57.7988 38.0512 54.9213 36.5471C52.6324 35.3699 52.1747 31.4461 51.8477 27.9801C51.7823 26.9337 51.4553 22.7484 53.4826 18.4976C54.202 17.0588 54.6597 16.6011 54.9867 16.3395C57.7334 14.2468 62.3765 16.4049 62.9651 16.7319C62.7035 16.5357 58.9105 13.7236 55.5099 15.2277C53.1556 16.2741 52.3055 18.6284 51.5207 20.9172C50.1474 24.7757 50.736 28.3071 51.2591 31.3807C51.5207 32.8194 51.8477 33.8658 52.1093 34.5198C52.5017 35.5661 52.9594 36.4163 53.3518 37.0048C52.8286 36.9394 52.1093 36.8086 51.3245 36.8086C49.428 36.6778 47.9893 36.8086 47.4661 36.874C47.0737 36.9394 45.5696 37.1356 43.7385 37.6588C42.496 38.0512 41.4496 38.4436 40.6649 38.8359C43.7385 37.7242 46.4198 37.4626 48.1855 37.3972C53.2864 37.2664 57.014 38.8359 59.5645 39.9477C60.1531 40.2093 60.807 40.5362 61.5264 40.994C63.5537 42.4328 64.5346 44.3293 64.9924 45.5718C64.4039 46.2912 63.4883 47.1413 62.1804 47.3375C60.6108 47.5991 59.6953 46.6835 56.5562 44.9178C53.221 43.0867 51.5207 42.1712 49.6896 42.3674C48.6433 42.4981 47.7277 43.0213 45.8312 44.1331C44.1309 45.1794 42.169 46.3565 40.2725 48.5146C38.376 50.6727 37.5912 52.6346 37.4604 53.027C37.068 54.0079 36.6103 55.1851 36.7411 56.6892C36.8065 58.0625 37.2642 59.1743 37.5912 59.7629C37.9182 60.286 38.4414 61.0054 39.1607 61.7248C40.7957 63.3597 43.3461 64.733 51.8477 65.1254C58.5835 65.387 61.9188 65.5832 66.0388 64.2752C69.9626 63.0327 72.6438 61.267 74.7365 59.8283C70.028 87.6872 35.6293 96.7774 18.3646 74.2155C19.8687 74.7387 21.569 75.2619 23.5963 75.8504C24.1195 75.9812 24.6427 75.8504 25.0351 75.5235C28.8935 71.7958 32.0979 67.0873 29.809 64.9292Z" fill="#F43434"/>
<path d="M4.50059 55.0544C4.95836 59.1744 6.59328 66.7604 12.6752 71.3381C15.6834 73.627 18.8878 74.4118 18.8878 74.4118C18.8878 74.4118 11.5634 72.8423 6.2009 67.0874C1.36155 61.921 0.119013 55.8391 0.0536163 54.0734C-0.142574 50.6074 0.0536157 44.0677 3.19265 36.7433C6.72407 28.5687 12.152 23.7294 14.9641 21.5713C12.4136 24.1872 8.81677 28.5687 6.46249 34.9122C6.07011 35.9586 4.1736 41.1903 4.04281 48.3185C3.97741 51.0652 4.239 53.3541 4.50059 55.0544Z" fill="#F43434"/>
<path d="M74.4096 60.0245C77.1563 57.9318 79.1182 55.9699 80.2953 54.5312C81.3416 53.3541 82.715 52.3077 84.6115 49.4957C85.1347 48.7109 86.508 47.0106 88.8623 45.9642C90.1702 45.4411 91.3473 45.2449 92.1975 45.2449C91.2165 45.7026 89.7778 46.5528 88.4699 48.0569C87.3581 49.2995 86.835 50.4766 86.6388 50.8036C85.7232 52.6347 82.8458 55.7083 74.2788 61.267C74.2788 60.8747 74.3442 60.4823 74.4096 60.0245Z" fill="#F43434"/>
</svg>
