<svg width="599" height="779" viewBox="0 0 599 779" fill="none" xmlns="http://www.w3.org/2000/svg">
<path d="M289.972 247.398C297.461 239.93 301.81 234.195 305.513 240.075C306.761 242.236 302 246.563 301.238 252.127C301.082 253.268 300.183 254.252 299.032 254.249C292.437 254.231 288.487 253.953 286.221 253.582C284.525 253.304 283.842 251.61 285.138 250.482C286.269 249.499 287.934 248.605 289.972 247.398Z" fill="#AF7575"/>
<path d="M283.578 99.8319C284.216 97.825 286.111 96.4318 288.203 96.672C295.333 97.4907 299.544 101.39 305.215 111.252C316.862 107.013 323.61 108.162 335.888 114.161C340.326 107.692 345.482 104.682 359.018 106.38C360.472 106.563 361.81 107.398 362.366 108.754C365.064 115.334 361.733 122.855 351.53 133.92C376.067 165.671 382.318 184.619 379.881 220.945C377.646 233.769 372.505 240.741 358.633 253.387C341.979 254.971 335.795 244.875 326.65 243.86L317.506 243.647C308.533 242.351 303.501 241.65 294.463 243.112C280.791 223.596 266.643 222.792 266.921 184.284C268.507 162.301 268.664 150.061 286.57 126.188C281.685 118.712 278.898 114.575 283.578 99.8319Z" fill="#FDBC5B"/>
<path d="M284.606 102.08C285.234 100.055 287.182 98.6487 289.261 99.0611C294.949 100.189 298.391 104.182 303.369 111.94C296.972 114.585 294.137 115.775 287.701 124.75C283.945 117.868 280.824 114.266 284.606 102.08Z" fill="#634A24"/>
<path d="M358.038 108.684C360.099 108.963 361.781 110.59 361.717 112.669C361.518 119.118 357.608 125.903 350.841 132.074C347.075 126.61 347.116 120.156 337.128 115.858C343.24 111.013 344.573 106.86 358.038 108.684Z" fill="#634A24"/>
<ellipse cx="327.351" cy="133.707" rx="6.58542" ry="6.21956" transform="rotate(1.33225 327.351 133.707)" fill="black"/>
<circle cx="329.537" cy="134.124" r="2.19514" transform="rotate(1.33225 329.537 134.124)" fill="white"/>
<circle cx="323.333" cy="134.728" r="1.09757" transform="rotate(1.33225 323.333 134.728)" fill="white"/>
<circle cx="294.816" cy="132.218" r="4.75614" transform="rotate(1.33225 294.816 132.218)" fill="black"/>
<ellipse cx="296.394" cy="132.535" rx="1.58538" ry="1.67864" transform="rotate(1.33225 296.394 132.535)" fill="white"/>
<ellipse cx="291.912" cy="133.003" rx="0.79269" ry="0.839318" transform="rotate(1.33225 291.912 133.003)" fill="white"/>
<path d="M325.54 153.113C326.468 155.737 326.789 158.607 325.864 161.232C322.832 169.834 314.042 176.231 303.71 175.991C293.052 173.143 290.805 168.471 288.041 160.23C287.312 158.056 286.877 155.742 287.371 153.504C289.183 145.307 296.673 138.134 307.146 138.377C317.709 138.623 322.083 143.324 325.54 153.113Z" fill="#F7DECC"/>
<path d="M345.482 252.349C352.971 244.881 353.637 240.158 357.34 246.038C358.608 248.234 359.105 250.697 359.504 256.016C359.58 257.032 358.863 257.938 357.859 258.114C349.443 259.587 345.366 260.106 342.698 259.226C340.988 258.662 340.369 256.497 341.592 255.175C342.412 254.288 343.634 253.443 345.482 252.349Z" fill="#AF7575"/>
<path d="M318.11 186.206C335.581 158.985 344.139 163.321 358.318 188.239C358.271 210.124 347.993 225.593 321.249 255.811L307.427 252.196C318.307 232.851 321.791 219.5 318.11 186.206Z" fill="url(#paint0_linear)"/>
<path d="M305.994 250.658C306.734 250.215 307.531 249.866 308.368 249.657C312.135 248.72 314.719 248.751 317.581 249.601C320.072 250.341 322.218 252.365 322.398 254.956C322.407 255.09 322.412 255.221 322.414 255.349C322.446 258.127 319.648 259.922 316.933 260.505C313.539 261.233 310.981 261.457 307.681 261.362C307.304 261.351 307.065 260.931 307.237 260.595C307.503 260.075 307.756 259.695 308.728 259.179C306.306 259.639 305.096 260.358 302.223 260.458C301.777 260.474 301.565 259.937 301.887 259.629L303.258 258.32C300.319 259.36 299.12 260.169 297.504 259.41C297.008 259.177 296.912 258.538 297.239 258.098C299.874 254.562 301.959 253.077 305.994 250.658Z" fill="#F2BABA"/>
<path d="M271.284 154.011C273.8 176.625 278.068 187.648 293.511 205.396L286.085 209.981C276.356 204.812 270.132 201.677 264.61 194.177C262.515 191.33 261.637 187.783 261.791 184.251C262.349 171.365 264.953 164.751 271.284 154.011Z" fill="url(#paint1_linear)"/>
<path d="M283.759 213.003C283.31 211.907 283.352 210.667 283.864 209.6C286.218 204.686 288.958 203.361 294.872 203.232C297.317 203.397 299.278 205.646 299.994 208.898C300.405 210.767 300.858 212.564 300.516 215.526C300.464 215.975 299.895 216.098 299.644 215.723C298.936 214.66 298.524 214.117 297.272 212.995C298.019 217.211 297.6 217.778 297.302 218.469C297.183 218.743 296.882 218.924 296.596 218.839C294.794 218.305 294.123 218.16 291.432 215.633C291.564 217.591 291.623 218.389 292.015 219.686C292.139 220.098 291.734 220.483 291.339 220.312C287.541 218.675 285.42 217.056 283.759 213.003Z" fill="#EBADAD"/>
<path d="M288.662 162.101C298.298 170.977 302.093 170.098 303.437 159.517C302.672 173.405 310.254 171.146 324.09 165.12C321.828 170.076 315.643 175.839 303.792 176.315C303.25 176.337 302.704 176.26 302.191 176.083C293.932 173.234 289.198 167.654 288.662 162.101Z" fill="url(#paint2_linear)"/>
<path d="M308.547 156.803C308.51 158.419 305.555 160.759 303.333 160.707C301.111 160.656 298.66 157.092 298.697 155.476C298.735 153.86 301.249 154.708 303.471 154.76C305.693 154.811 308.585 155.187 308.547 156.803Z" fill="#F2BABA"/>
<path d="M165.281 527.546L211.1 536.454C208.827 568.701 197.916 582.106 165.457 599.711C161.283 621.132 167.682 630.769 182.566 645.204C183.656 646.261 183.238 648.109 181.776 648.522C172.412 651.163 165.232 651.164 153.402 645.954C149.423 644.202 147.346 639.869 147.972 635.566C150.938 615.163 150.354 601.384 146.669 578.246L165.281 527.546Z" fill="#BB9B88"/>
<path d="M441.524 556.708L463.697 543.791C488.676 570.633 507.9 584.529 597.882 651.391C591.51 663.303 582.477 663.204 560.422 655.645C541.721 636.693 527.195 626.5 498.55 608.611C448.848 572.731 452.906 570.781 441.524 556.708Z" fill="#D2B09D"/>
<path d="M387.008 396.551L474.697 399.143L456.204 498.416C466.848 504.565 469.222 517.236 471.13 541.493C471.426 545.258 469.524 548.85 466.343 550.885C439.057 568.34 432.872 582.735 428.719 609.507C457.096 658.108 502.016 697.816 539.361 736.914L523.432 749.443C474.986 712.193 419.811 666.63 379.629 623.817C378.172 622.265 377.283 620.286 376.99 618.178C376.006 611.087 374.668 606.285 371.793 598.543C328.447 599.001 307.975 593.416 278.054 573.098C246.98 552.275 228.291 542.453 188.447 534.458C174.895 558.055 164.875 570.271 140.635 586.247C138.881 587.403 136.791 587.955 134.694 587.829C117.403 586.792 107.145 585.072 91.4052 577.023C79.7515 593.151 74.7601 603.766 68.6068 620.611C67.3224 624.128 64.2175 626.747 60.4826 627.001C47.4037 627.892 43.551 623.716 49.7121 605.26C49.7942 605.014 49.9042 604.756 50.0243 604.526C77.0798 552.721 81.6682 547.325 96.8953 552.03C107.322 509.468 114.597 492.92 132.125 486.717C158.182 461.926 151.84 436.159 128.321 372.851C127.255 369.979 128.986 366.645 132.05 366.642C136.724 366.638 141.046 368.619 148.16 375.325C148.388 375.539 148.595 375.776 148.777 376.03C160.916 393.077 175.862 422.792 181.982 444.267C247.818 460.217 285.62 463.803 356.852 447.31C375.24 442.506 380.857 425.511 387.008 396.551Z" fill="url(#paint3_linear)"/>
<path d="M364.659 379.007C361.116 376.477 358.484 372.844 357.209 368.682C344.733 327.953 341.855 308.482 356.928 297.397C373.892 294.163 392.743 327.771 418.805 346.512L386.309 394.471L364.659 379.007Z" fill="#BA6B3F"/>
<path d="M367.99 374.069C365.008 371.594 362.799 368.293 361.674 364.585C351.149 329.884 348.741 313.275 361.494 303.812C375.874 301.046 391.854 329.79 413.946 345.82L388.382 390.996L367.99 374.069Z" fill="#673B23"/>
<path d="M509.973 367.982C512.054 363.399 512.321 358.193 510.778 353.402C496.823 310.062 489.809 278.728 472.753 274.215C459.352 282.186 460.043 317.351 447.25 344.361L502.168 385.167L509.973 367.982Z" fill="#BA6B3F"/>
<path d="M502.699 362.827C504.78 358.244 505.047 353.044 503.513 348.25C492.505 313.868 486.791 289.112 473.158 285.504C462.301 291.963 462.861 320.453 452.496 342.336L496.99 375.397L502.699 362.827Z" fill="#673B23"/>
<path d="M400.452 356.954C403.207 350.119 409.498 345.352 416.824 344.549L463.198 339.465C494.428 341.471 502.13 369.902 504.293 403.204C434.549 464.841 407.905 466.806 385.614 393.779L400.452 356.954Z" fill="#BA6B3F"/>
<path d="M424.349 343.723L450.017 340.885C453.095 355.871 458.415 365.027 470.935 382.468C464.682 379.014 461.621 381.237 459.84 385.27C448.423 368.439 441.808 358.779 424.349 343.723Z" fill="#EEC7B2"/>
<path d="M520.39 743.175L535.632 733.423L571.074 755.541C573.768 776.024 568.611 781.619 542.583 774.608C540.396 774.019 538.481 772.645 537.176 770.793C524.688 753.068 519.915 745.639 520.39 743.175Z" fill="#EEC7B2"/>
<path d="M424.435 439.883C422.558 435.441 425.942 431.314 430.708 430.573L482.542 422.504C490.108 421.327 496.044 428.733 494.21 436.167C490.659 450.568 490.67 465.454 496.309 492.765C496.678 494.553 496.639 496.458 495.802 498.081C493.415 502.707 489.83 503.906 484.055 504.362C481.612 504.555 479.205 503.721 477.337 502.134C455.219 483.352 431.321 456.178 424.435 439.883Z" fill="#BA6B3F"/>
<path d="M425.261 431.073L497.395 419.874C490.27 440.704 485.002 454.471 493.353 488.405C493.826 490.326 493.847 492.404 492.901 494.141C491.452 496.803 489.632 497.922 486.952 498.447C482.151 499.388 477.278 497.339 473.599 494.114C449.784 473.233 424.918 443.267 425.261 431.073Z" fill="#494646"/>
<path d="M448.348 436.648L487.694 436.551C488.232 460.398 482.597 472.661 461.317 488.995C458.578 491.097 455.286 492.365 451.849 492.705C429.683 494.903 420.545 493.354 423.005 483.076C423.921 479.251 426.901 476.352 430.188 474.193C447.014 463.144 452.506 454.58 448.348 436.648Z" fill="#E45B5B"/>
<path d="M464.823 436.607L470.381 439.369C474.605 452.532 459.104 468.513 445.068 480.982C440.96 484.632 434.254 485.725 438.67 482.454C441.335 480.479 445.37 477.456 450.339 472.725C463.493 460.203 468.328 451.17 464.823 436.607Z" fill="#BC2B2B"/>
<path d="M422.483 431.853C438.344 410.088 451.141 400.105 469.341 391.301C473.899 389.096 479.192 388.882 483.895 390.754C514.541 402.95 517.057 415.452 512.606 437.821C512.257 439.574 510.971 441.002 509.259 441.516C498.524 444.738 489.228 445.789 463.22 442.581C461.078 442.316 458.995 441.67 457.021 440.8C443.78 434.964 433.076 434.21 422.483 431.853Z" fill="#EEC7B2"/>
<path d="M514.796 416.245C516.013 423.035 509.723 435.484 499.538 437.309C489.353 439.135 479.131 429.647 477.914 422.857C476.697 416.067 484.823 413.864 495.008 412.038C505.193 410.212 513.579 409.455 514.796 416.245Z" fill="#2D2C2C"/>
<path d="M511.303 415.934C511.569 417.42 510.193 420.145 507.964 420.544C505.735 420.944 503.497 418.867 503.231 417.381C502.964 415.895 504.743 415.413 506.972 415.013C509.201 414.614 511.037 414.448 511.303 415.934Z" fill="#9C9C9C"/>
<circle cx="431.389" cy="384.646" r="10.4085" transform="rotate(-0.139946 431.389 384.646)" fill="#201F1F"/>
<ellipse cx="487.571" cy="374.794" rx="9.71456" ry="9.02066" transform="rotate(-0.139946 487.571 374.794)" fill="#201F1F"/>
<circle cx="428.613" cy="384.653" r="3.46949" transform="rotate(-0.139946 428.613 384.653)" fill="white"/>
<circle cx="484.101" cy="374.803" r="3.46949" transform="rotate(-0.139946 484.101 374.803)" fill="white"/>
<circle cx="437.632" cy="383.937" r="1.38779" transform="rotate(-0.139946 437.632 383.937)" fill="white"/>
<circle cx="493.12" cy="374.087" r="1.38779" transform="rotate(-0.139946 493.12 374.087)" fill="white"/>
<path d="M51.8005 224.979C49.1089 169.699 33.6193 125.273 31.644 110.605C31.3401 108.348 32.2927 106.1 34.2428 104.925C44.3799 98.8141 57.0266 111.688 76.3901 153.934L73.2563 189.378L51.8005 224.979Z" fill="url(#paint4_linear)"/>
<path d="M168.225 55.9988C169.307 55.9644 169.811 57.2444 170.044 58.3015C171.378 64.3382 173.439 70.9754 166.569 77.1783L157.558 72.7976L153.202 66.9268C163.295 60.6814 166.02 56.0689 168.225 55.9988Z" fill="#6B4040"/>
<path d="M167.25 57.9404C168.314 57.7447 168.86 59.0722 169.096 60.1288C170.25 65.297 171.903 70.9586 166.038 76.2547L158.236 72.4616L154.464 67.3783C162.868 62.1781 165.372 58.2854 167.25 57.9404Z" fill="#401B1B"/>
<path d="M110.978 46.1705C112.074 44.9764 113.772 44.4508 115.276 45.0557C119.913 46.9212 122.045 51.231 125.025 59.3884L117.789 64.4708L106.582 71.7711C104.341 58.7104 105.172 52.4932 110.978 46.1705Z" fill="#6B4040"/>
<path d="M111.593 48.1975C112.679 46.9862 114.392 46.4498 115.883 47.0992C119.865 48.8336 121.752 52.7027 124.369 59.8936L117.885 64.4665L107.841 71.0348C105.855 59.4192 106.557 53.8181 111.593 48.1975Z" fill="#401B1B"/>
<path d="M169.835 93.8823C167.342 110.559 152.968 126.967 134.091 124.145C115.215 121.324 98.984 100.34 101.477 83.6639C103.97 66.9877 121.293 55.7565 140.169 58.5782C159.046 61.3999 172.328 77.2061 169.835 93.8823Z" fill="#653737"/>
<path d="M139.757 86.8866C139.322 93.7123 141.225 95.9608 147.969 98.2686C146.287 103.077 143.428 105.485 137.883 108.441C137.18 108.815 136.318 108.722 135.711 108.208C129.567 103.002 128.368 100.064 126.555 95.8331C134.698 94.7983 138.568 92.761 139.757 86.8866Z" fill="#4C1F1F"/>
<path d="M139.75 85.5699C139.315 92.3957 141.218 94.6441 147.962 96.9519C146.28 101.76 143.421 104.168 137.876 107.124C137.173 107.499 136.311 107.406 135.704 106.891C129.56 101.685 128.361 98.7474 126.548 94.5165C134.691 93.4817 138.56 91.4443 139.75 85.5699Z" fill="url(#paint5_linear)"/>
<path d="M133.554 101.27C133.571 101.158 133.73 101.156 133.751 101.266L134.536 105.404L133.119 104.111L133.554 101.27Z" fill="#C4C4C4"/>
<path d="M141.004 101.435C141.031 101.322 141.196 101.338 141.202 101.454L141.355 104.805L140.031 105.544L141.004 101.435Z" fill="#C4C4C4"/>
<path d="M143.635 84.4256C148.059 83.8026 150.207 84.7794 152.542 86.7295C154.971 88.7588 156.766 91.4928 157.74 94.5048C160.346 102.573 158.454 103.671 149.859 101.792C141.38 98.2286 138.859 94.7362 139.165 86.5759L143.635 84.4256Z" fill="#C1A1A1"/>
<path d="M115.75 90.757C126.533 82.2181 131.662 79.9991 137.858 84.3167L139.461 89.6745C136.794 96.2573 133.059 98.6336 119.696 97.6595C118.197 97.5503 116.711 97.115 115.503 96.2227C113.167 94.4977 112.939 93.1191 115.75 90.757Z" fill="#C1A1A1"/>
<path d="M139.319 89.9631L136.594 83.9597C136.465 83.6757 136.696 83.36 137.006 83.3972L143.72 84.2034C144.043 84.2422 144.187 84.6299 143.968 84.8702L139.319 89.9631Z" fill="#303030"/>
<path d="M127.162 88.7043C114.913 87.437 108.905 87.6296 100.064 89.9415" stroke="white" stroke-width="0.5"/>
<path d="M127.29 91.1685C114.981 90.7756 109.003 91.3949 100.348 94.3299" stroke="white" stroke-width="0.5"/>
<path d="M127.333 93.585C115.041 94.3363 109.146 95.508 100.801 99.2336" stroke="white" stroke-width="0.5"/>
<path d="M175.171 99.4107C165.838 93.3261 160.883 93.8229 150.412 92.3947" stroke="white" stroke-width="0.5"/>
<path d="M176.034 103.444C166.068 97.681 159.595 96.258 149.827 94.458" stroke="white" stroke-width="0.5"/>
<path d="M172.864 108.341C163.207 102.416 159.522 98.2392 149.247 96.6223" stroke="white" stroke-width="0.5"/>
<path d="M64.6297 15.3042C75.1068 1.60921 80.7285 4.05544 90.5274 17.5161C98.91 85.1478 108.441 99.2169 118.431 113.706C120.052 116.056 122.114 118.109 124.645 119.431C133.208 123.904 139.294 123.884 148.098 120.148C150.365 119.186 152.364 117.684 153.997 115.841C164.85 103.587 169.864 93.2004 175.097 70.6793C171.02 51.3753 176.085 47.1484 187.347 41.6079C202.366 37.8072 203.76 45.2958 206.442 58.3864C209.332 64.1731 208.989 67.4762 199.671 73.6305L190.13 102.578C188.248 143.809 177.254 154.538 163.14 180.522C158.684 205.959 151.475 220.169 137.595 245.501C148.473 257.473 155.239 266.853 167.965 286.204C185.921 321.352 195.207 319.054 224.231 314.184C233.563 325.299 203.896 346.715 167.575 337.136C120.15 322.476 101.439 314.663 91.2929 301.924C77.2367 304.568 59.6105 321.7 24.454 369.468C13.4702 341.223 12.7498 323.098 26.3785 292.668C31.1466 270.535 34.0954 257.85 52.3539 222.238L59.4008 198.157C78.872 157.452 81.3641 137.293 76.1644 104.387C76.5406 76.9738 76.1645 60.7171 64.6297 15.3042Z" fill="#4D1F1F"/>
<ellipse cx="127.163" cy="75.1685" rx="6.54592" ry="4.99668" transform="rotate(10.6709 127.163 75.1685)" fill="black"/>
<ellipse cx="127.244" cy="75.4314" rx="5.42524" ry="4.14123" transform="rotate(10.6709 127.244 75.4314)" fill="#17A66A"/>
<ellipse cx="152.664" cy="78.9271" rx="6.47016" ry="4.93885" transform="rotate(1.31535 152.664 78.9271)" fill="black"/>
<ellipse cx="152.664" cy="78.9273" rx="5.42524" ry="4.14123" transform="rotate(1.31535 152.664 78.9273)" fill="#17A66A"/>
<ellipse cx="127.238" cy="74.9448" rx="0.678155" ry="2.03446" transform="rotate(1.51739 127.238 74.9448)" fill="#1E1E1E"/>
<circle cx="128.446" cy="74.846" r="0.678155" transform="rotate(-2.61409 128.446 74.846)" fill="white"/>
<circle cx="123.673" cy="74.3858" r="1.35631" transform="rotate(-2.61409 123.673 74.3858)" fill="#F5F5F5"/>
<ellipse cx="151.812" cy="77.896" rx="0.678155" ry="2.03446" transform="rotate(1.51739 151.812 77.896)" fill="#1E1E1E"/>
<circle cx="150.31" cy="77.9212" r="0.678155" transform="rotate(-2.61409 150.31 77.9212)" fill="white"/>
<circle cx="155.083" cy="78.3821" r="1.35631" transform="rotate(-2.61409 155.083 78.3821)" fill="#F5F5F5"/>
<circle cx="181.968" cy="54.9748" r="3.39077" transform="rotate(-2.61409 181.968 54.9748)" fill="#ED9090"/>
<circle cx="189.912" cy="50.539" r="3.39077" transform="rotate(-2.61409 189.912 50.539)" fill="#ED9090"/>
<circle cx="198.226" cy="54.2324" r="3.39077" transform="rotate(-2.61409 198.226 54.2324)" fill="#ED9090"/>
<circle cx="201.308" cy="62.238" r="3.39077" transform="rotate(-2.61409 201.308 62.238)" fill="#ED9090"/>
<ellipse cx="189.299" cy="64.0165" rx="6.9833" ry="5.59454" transform="rotate(34.8618 189.299 64.0165)" fill="#ED9090"/>
<circle cx="71.8452" cy="15.4954" r="2.71262" transform="rotate(-31.6425 71.8452 15.4954)" fill="#ED9090"/>
<circle cx="78.4956" cy="12.4761" r="2.71262" transform="rotate(-31.6425 78.4956 12.4761)" fill="#ED9090"/>
<circle cx="84.0391" cy="14.9385" r="2.71262" transform="rotate(-31.6425 84.0391 14.9385)" fill="#ED9090"/>
<circle cx="70.7993" cy="22.3318" r="2.71262" transform="rotate(-31.6425 70.7993 22.3318)" fill="#ED9090"/>
<ellipse cx="80.6696" cy="23.8395" rx="6.90157" ry="4.7616" transform="rotate(48.1377 80.6696 23.8395)" fill="#ED9090"/>
<path d="M18.481 340.093L37.666 343.969C36.4307 358.607 36.8791 366.083 40.0137 380.521C34.0221 391.158 26.9912 392.572 18.1985 381.848C17.3602 380.825 17.0254 379.477 17.1879 378.165C19.278 361.281 16.9185 354.905 18.481 340.093Z" fill="#4D1F1F"/>
<defs>
<linearGradient id="paint0_linear" x1="328.955" y1="223.42" x2="344.887" y2="183.535" gradientUnits="userSpaceOnUse">
<stop stop-color="#E19854"/>
<stop offset="1" stop-color="#FDBC5B"/>
</linearGradient>
<linearGradient id="paint1_linear" x1="279.161" y1="208.722" x2="278.387" y2="163.325" gradientUnits="userSpaceOnUse">
<stop stop-color="#E19854"/>
<stop offset="1" stop-color="#FDBC5B"/>
</linearGradient>
<linearGradient id="paint2_linear" x1="306.222" y1="161.029" x2="305.848" y2="177.122" gradientUnits="userSpaceOnUse">
<stop stop-color="#CFAF99"/>
<stop offset="1" stop-color="#F6DECC"/>
</linearGradient>
<linearGradient id="paint3_linear" x1="426.947" y1="270.721" x2="292.091" y2="457.016" gradientUnits="userSpaceOnUse">
<stop stop-color="#BA6B3F"/>
<stop offset="1" stop-color="#EEC7B2"/>
</linearGradient>
<linearGradient id="paint4_linear" x1="72.0004" y1="188.979" x2="42.7932" y2="114.28" gradientUnits="userSpaceOnUse">
<stop stop-color="#200E0E"/>
<stop offset="1" stop-color="#653737"/>
</linearGradient>
<linearGradient id="paint5_linear" x1="141.389" y1="88.0547" x2="138.898" y2="107.855" gradientUnits="userSpaceOnUse">
<stop stop-color="#010101"/>
<stop offset="1" stop-color="#752828"/>
</linearGradient>
</defs>
</svg>
