<svg width="473" height="481" viewBox="0 0 473 481" fill="none" xmlns="http://www.w3.org/2000/svg">
<path d="M306.496 412.874C-100.017 329.225 28.832 5.9225 184.482 113.663C220.419 -72.2036 538.606 68.805 306.496 412.874Z" fill="#F43434"/>
<rect x="252.418" y="269.025" width="50.6396" height="61.0807" fill="#563B1C"/>
<path d="M302.537 316.532C331.737 312.977 350.317 319.302 375.094 323.253C376.298 323.445 377.191 324.48 377.191 325.699C377.191 327.104 376.012 328.224 374.609 328.166C343.826 326.882 327.782 328.271 301.753 330.105L302.537 316.532Z" fill="#392814"/>
<path d="M300.448 274.767L310.889 263.804C313.43 268.893 313.86 271.669 314.283 276.594C335.548 290.031 327.149 307.906 303.581 333.237L293.923 307.396L291.051 287.035L300.448 274.767Z" fill="url(#paint0_linear)"/>
<path d="M243.021 259.888L250.591 268.763L240.933 318.62C224.156 286.469 213.525 267.719 240.15 262.76L243.021 259.888Z" fill="url(#paint1_linear)"/>
<path d="M229.709 318.098C249.025 322.376 250.632 314.811 256.856 305.046C265.992 312.094 278.783 319.142 283.481 331.149C266.606 333.07 236.133 333.733 219.268 331.149C211.739 322.7 214.067 319.856 229.709 318.098Z" fill="#664722"/>
<path d="M251.635 163.308L300.709 164.613C312.225 206.889 311.239 222.18 310.628 265.109C309.319 271.385 307.357 284.147 303.841 292.778C297.078 321.036 303.948 318.231 303.978 330.888C303.983 332.932 302.565 334.7 300.595 335.246C295.923 336.54 292.336 337.019 288.34 336.224C284.602 335.481 282.323 331.863 282.204 328.054C281.542 306.88 282.697 294.922 287.396 277.899L263.643 281.554C260.103 292.151 258.805 302.293 258.299 326.057C258.198 330.833 254.791 335.064 250.037 335.536C246.197 335.917 243.176 335.733 238.638 334.938C236.564 334.574 234.923 332.894 234.802 330.792C234.514 325.799 236.03 324.291 240.15 321.491C242.925 295.468 242.867 278.424 240.15 246.315C237.469 214.579 236.851 196.35 251.635 163.308Z" fill="url(#paint2_linear)"/>
<path d="M266.514 113.451C279.635 106.281 286.653 108.813 298.881 118.933L304.624 145.297C305.449 156.308 303.978 162.432 298.881 172.444L282.175 193.326C298.55 216.599 299.298 232.89 294.444 264.326C281.497 302.532 273.604 317.017 252.679 267.98C244.796 235.841 244.997 218.685 263.642 191.499L252.679 172.444C249.362 158.557 249.372 152.086 251.374 137.205L266.514 113.451Z" fill="url(#paint3_linear)"/>
<ellipse cx="268.603" cy="134.595" rx="4.17646" ry="3.91543" fill="black"/>
<ellipse cx="290.007" cy="137.205" rx="4.17646" ry="3.91543" fill="black"/>
<circle cx="270.691" cy="133.812" r="1.04412" fill="white"/>
<circle cx="291.573" cy="136.422" r="1.04412" fill="white"/>
<circle cx="266.776" cy="135.117" r="0.783086" fill="white"/>
<circle cx="287.658" cy="137.727" r="0.783086" fill="white"/>
<path d="M259.466 154.172C264.165 175.837 286.091 173.488 291.051 160.437C290.179 152.405 284.881 149.299 282.176 138.51C276.955 141.904 279.304 141.904 274.606 138.51C272.362 144.417 266.607 146.975 259.466 154.172Z" fill="#695C4B"/>
<path d="M263.121 163.047C269.625 166.39 272.952 165.139 275.128 160.698C276.23 166.592 278.897 169.019 285.83 167.223L284.19 168.342C281.496 170.179 278.396 171.513 275.135 171.474C273.054 171.449 271.391 171.095 269.605 170.208C267.442 169.133 265.84 167.23 264.523 165.205L263.121 163.047Z" fill="#AC997F"/>
<path d="M281.923 159.397C281.62 161.485 275.211 165.888 275.099 160.981C273.327 165.615 268.704 159.611 269.007 157.522C269.31 155.433 272.447 154.16 276.014 154.677C279.58 155.195 282.226 157.308 281.923 159.397Z" fill="#3E3D3D"/>
<ellipse cx="278.419" cy="156.833" rx="1.30514" ry="0.783086" transform="rotate(15.0462 278.419 156.833)" fill="#C4C4C4"/>
<path d="M235.872 119.398C236.034 115.46 238.615 112.017 242.349 110.756C258.485 105.308 261.544 107.134 268.602 113.973C257.916 123.628 254.904 132.093 253.463 146.08C248.985 153.554 247.875 153.183 242.758 149.453C242.075 148.954 241.528 148.287 241.177 147.517C236.66 137.625 235.335 132.505 235.872 119.398Z" fill="#624420"/>
<path d="M297.576 118.15C303.272 114.365 308.455 115.972 316.212 120.18C319.914 122.188 322.976 125.392 324.042 129.465C327.032 140.889 321.955 147.885 316.055 158.425C315.225 159.908 314.068 161.22 312.562 162.008C305.086 165.918 303.347 161.626 301.231 155.477C302.671 142.689 302.543 135.015 297.576 118.15Z" fill="#624420"/>
<ellipse cx="229.97" cy="323.579" rx="3.13235" ry="1.8272" fill="#D89A51"/>
<ellipse cx="221.095" cy="330.105" rx="3.13235" ry="1.56617" fill="#EAA85B"/>
<ellipse cx="230.23" cy="329.322" rx="4.43749" ry="2.87132" fill="#D3964F"/>
<ellipse cx="222.139" cy="325.668" rx="3.6544" ry="2.34926" fill="#D89A51"/>
<path d="M64.935 317.901C75.609 315.9 88.7292 317.901 105.852 309.673C122.975 301.445 129.045 297.88 137.874 299.666L183.461 317.901L175.254 335.246L159.595 334.298L126.088 321.237C113.344 319.033 102.854 324.546 73.8557 327.137C66.3005 327.811 54.8925 320.802 62.1416 318.569C62.9243 318.328 63.8491 318.105 64.935 317.901Z" fill="#36363E"/>
<path d="M116.908 303.497L132.919 297.938L151.821 316.395C155.301 323.727 157.966 326.914 159.094 329.882C160.357 333.202 157.337 336.414 153.811 336.841C150.497 337.243 146.887 336.891 141.147 335.519C134.007 333.959 129.297 332.919 125.004 331.834C122.119 331.105 119.707 329.073 118.699 326.274C115.89 318.476 115.951 312.743 116.908 303.497Z" fill="#BEBED2"/>
<path d="M127.582 318.396C130.311 317.619 131.589 317.097 137.144 317.284L145.816 319.063L156.268 323.511L157.602 325.957C160.089 329.574 161.053 331.63 160.59 333.663C160.371 334.627 159.591 335.344 158.685 335.74C152.748 338.33 146.583 337.048 137.144 334.63C142.524 335.16 146.23 335.686 149.374 335.074C150.623 334.409 150.725 333.439 149.374 330.182L151.604 332.764C152.829 334.183 155.49 334.792 155.248 332.933C155.111 331.88 154.461 330.402 153.44 328.353L157.122 332.46C157.634 333.031 158.589 332.834 158.68 332.073C158.865 330.537 158.328 329.163 156.275 327.066C154.599 325.356 152.441 324.208 150.187 323.399C144.371 321.31 143.006 320.819 139.208 319.68L136.699 319.063C133.973 318.365 131.999 318.207 127.582 318.396Z" fill="#868697"/>
<path d="M200.521 307.277C196.588 300.942 192.898 299.618 189.18 298.382L172.878 315.978C169.828 323.5 167.353 326.836 166.399 329.864C165.331 333.252 168.532 336.284 172.077 336.506C175.409 336.714 178.992 336.153 184.644 334.451C191.329 332.578 195.071 330.665 198.659 329.018C201.59 327.672 204.067 325.246 204.606 322.065C206.222 312.521 202.299 309.787 200.521 307.277Z" fill="#BEBED2"/>
<path d="M197.193 316.569C194.422 315.952 193.116 315.505 187.582 316.014L179.027 318.294L168.85 323.34L167.66 325.86C165.387 329.615 164.544 331.724 165.124 333.726C165.4 334.675 166.218 335.349 167.151 335.676C173.395 337.86 180.619 335.764 189.91 332.8C184.569 333.641 179.578 334.912 176.404 334.484C175.119 333.892 174.961 332.93 176.12 329.6L174.043 332.307C172.903 333.794 170.267 334.605 170.331 332.732C170.366 331.686 170.894 330.182 171.798 328.069L168.516 332.292C168.042 332.902 167.068 332.765 166.935 332.004C166.579 329.97 167.535 328.141 171.579 324.295C179.402 320.618 183.248 318.696 186.797 317.842L188.353 317.456C191.034 316.601 192.772 316.637 197.193 316.569Z" fill="#868697"/>
<path d="M113.405 265.89C114.922 263.665 116.935 261.698 119.502 260.886C123.048 259.764 125.686 260.637 129.583 262.58C149.876 254.757 158.671 261.361 174.281 273.476L156.713 308.834L132.474 301.051C122.295 306.241 119.624 311.201 117.352 321.732C111.22 309.7 108.315 303.414 106.678 295.269C105.631 282.725 106.791 275.585 113.405 265.89Z" fill="#868697"/>
<path d="M131.92 273.528C132.153 272.399 133.377 271.842 134.457 272.244C139.045 273.949 142.219 274.488 147.596 273.476C158.972 270.887 165.641 271.172 177.839 273.476C182.521 271.566 185.58 270.536 190.751 270.095C192.141 269.977 193.164 271.331 192.74 272.66C191.035 278 189.971 281.925 188.735 289.043C189.59 294.61 190.059 297.955 190.102 303.509C190.153 310.05 186.644 316.225 180.787 319.139C168.929 325.037 158.564 325.968 143.261 320.057C138.136 318.078 134.208 313.7 133.048 308.33C131.508 301.201 132.226 296.692 136.032 291.711C132.726 283.852 130.768 279.096 131.92 273.528Z" fill="#CCCCDF"/>
<path d="M154.934 311.947C160.979 308.387 163.334 309.506 167.387 311.947V317.507C162.741 319.725 160.051 321.214 154.934 318.619C151.093 316.228 150.316 314.811 154.934 311.947Z" fill="#817C7C"/>
<path d="M177.254 311.263C171.869 308.088 169.938 309.331 166.649 311.979L167.021 317.48C171.126 319.408 173.516 320.726 177.7 317.863C180.812 315.277 181.378 313.83 177.254 311.263Z" fill="#817C7C"/>
<path d="M162.717 310.168C163.126 309.35 163.962 308.834 164.876 308.834C166.019 308.834 167.078 308.834 167.387 308.834C167.628 308.834 168.651 308.834 169.539 308.834C170.379 308.834 171.124 309.371 171.39 310.168C169.78 311.126 168.909 312.131 167.387 314.393C165.82 312.179 164.844 311.151 162.717 310.168Z" fill="#565353"/>
<path d="M117.797 273.921C119.798 270.808 127.804 264.803 127.804 264.803C116.251 279.719 115.732 290.332 117.797 310.391C117.797 310.391 114.906 291.933 114.461 287.263C114.017 282.594 115.796 277.034 117.797 273.921Z" fill="#ADADBC"/>
<path d="M160.708 312.595C149.189 312.146 147.727 316.178 143.141 319.044" stroke="black" stroke-width="0.5"/>
<path d="M172.892 312.6C184.27 311.359 185.997 315.282 190.738 317.825" stroke="black" stroke-width="0.5"/>
<path d="M160.82 314.791C151.206 315.166 150.424 318.981 146.922 321.935" stroke="black" stroke-width="0.5"/>
<path d="M172.934 314.798C182.482 314.511 183.521 318.263 187.194 320.969" stroke="black" stroke-width="0.5"/>
<path d="M161.929 316.441C153.733 317.88 153.04 320.464 150.035 322.824" stroke="black" stroke-width="0.5"/>
<path d="M171.95 316.521C180.167 317.393 181.032 319.922 184.172 322.07" stroke="black" stroke-width="0.5"/>
<ellipse cx="155.156" cy="300.012" rx="5.93989" ry="5.43575" fill="black"/>
<ellipse cx="155.229" cy="300.259" rx="5.24108" ry="4.79625" fill="#D89A51"/>
<ellipse cx="155.229" cy="300.259" rx="3.35733" ry="3.51725" fill="black"/>
<ellipse cx="156.779" cy="299.62" rx="0.774768" ry="0.959249" fill="white"/>
<ellipse cx="152.647" cy="301.538" rx="1.29128" ry="1.59875" fill="white"/>
<ellipse cx="175.743" cy="299.765" rx="5.93989" ry="5.43575" fill="black"/>
<ellipse cx="175.816" cy="300.012" rx="5.24108" ry="4.79625" fill="#D89A51"/>
<ellipse cx="175.816" cy="300.012" rx="3.35733" ry="3.51725" fill="black"/>
<ellipse cx="177.366" cy="299.373" rx="0.774768" ry="0.959249" fill="white"/>
<ellipse cx="173.234" cy="301.291" rx="1.29128" ry="1.59875" fill="white"/>
<path d="M133.427 274.315C139.358 279.675 142.912 281.212 149.661 281.431C142.919 284.189 140.096 286.029 137.652 290.104C133.349 282.789 132.389 279.317 133.427 274.315Z" fill="#767681"/>
<path d="M178.569 279.652C183.88 274.58 186.515 273.36 191.022 272.091C190.129 278.7 189.206 281.797 187.02 286.546C184.895 282.076 182.756 281.004 178.569 279.652Z" fill="#767681"/>
<defs>
<linearGradient id="paint0_linear" x1="316.41" y1="275.146" x2="304.142" y2="317.954" gradientUnits="userSpaceOnUse">
<stop stop-color="#AD793C"/>
<stop offset="1" stop-color="#664722"/>
</linearGradient>
<linearGradient id="paint1_linear" x1="237.292" y1="259.888" x2="250.63" y2="318.477" gradientUnits="userSpaceOnUse">
<stop stop-color="#9E6E35"/>
<stop offset="1" stop-color="#664722"/>
</linearGradient>
<linearGradient id="paint2_linear" x1="272.779" y1="270.33" x2="269.646" y2="338.458" gradientUnits="userSpaceOnUse">
<stop stop-color="#FFB967"/>
<stop offset="1" stop-color="#815421"/>
</linearGradient>
<linearGradient id="paint3_linear" x1="276.433" y1="239.789" x2="276.433" y2="294.083" gradientUnits="userSpaceOnUse">
<stop stop-color="#FFCE95"/>
<stop offset="1" stop-color="#AD793C"/>
</linearGradient>
</defs>
</svg>
