<svg width="15" height="15" viewBox="0 0 15 15" fill="none" xmlns="http://www.w3.org/2000/svg">
<path d="M13.3333 0H8.33333C7.875 0 7.5 0.375 7.5 0.833333C7.5 1.29167 7.875 1.66667 8.33333 1.66667H13.3333V13.3333H8.33333C7.875 13.3333 7.5 13.7083 7.5 14.1667C7.5 14.625 7.875 15 8.33333 15H13.3333C14.25 15 15 14.25 15 13.3333V1.66667C15 0.75 14.25 0 13.3333 0Z" fill="#9B0F0F"/>
<path d="M6.66667 5.17503V6.6667H0.833333C0.375 6.6667 0 7.0417 0 7.50003C0 7.95837 0.375 8.33337 0.833333 8.33337H6.66667V9.82503C6.66667 10.2 7.11667 10.3834 7.375 10.1167L9.7 7.7917C9.86667 7.62503 9.86667 7.3667 9.7 7.20003L7.375 4.87503C7.11667 4.6167 6.66667 4.80003 6.66667 5.17503Z" fill="#9B0F0F"/>
</svg>
